<svg width="52" height="52" viewBox="0 0 52 52" fill="none" xmlns="http://www.w3.org/2000/svg">
<circle cx="26" cy="26" r="26" fill="white"/>
<path d="M45.7478 26.7413C45.7487 25.3497 45.6248 23.9608 45.3778 22.5913H26.2778V30.4413H37.1878C36.9674 31.6782 36.4995 32.8578 35.8122 33.9094C35.1248 34.9611 34.2322 35.8631 33.1878 36.5613V41.6513H39.7378C43.5378 38.1213 45.7478 32.9213 45.7478 26.7413Z" fill="#4285F4"/>
<path d="M26.2778 46.5613C31.2135 46.6959 36.0142 44.9394 39.6978 41.6513L33.1478 36.5613C31.5791 37.5676 29.8014 38.2023 27.9501 38.4172C26.0989 38.632 24.2231 38.4213 22.4656 37.8011C20.7082 37.1809 19.1156 36.1676 17.8093 34.8384C16.5029 33.5092 15.5174 31.8992 14.9278 30.1313H8.15776V35.3913C9.84533 38.7502 12.4337 41.5737 15.6335 43.5462C18.8334 45.5188 22.5188 46.5627 26.2778 46.5613V46.5613Z" fill="#34A853"/>
<path d="M14.9278 30.1313C14.0797 27.6313 14.0797 24.9213 14.9278 22.4213V17.1713H8.15775C6.73888 19.9985 6 23.118 6 26.2813C6 29.4446 6.73888 32.5641 8.15775 35.3913L14.9278 30.1313Z" fill="#FBBC05"/>
<path d="M26.2778 14.0613C29.154 14.0095 31.9361 15.0864 34.0278 17.0613L39.8478 11.2813C36.1759 7.83514 31.3132 5.9431 26.2778 6.0013C22.519 6.00106 18.8341 7.04543 15.6345 9.01786C12.4348 10.9903 9.84624 13.8131 8.15776 17.1713L14.9378 22.4313C15.7155 20.0256 17.2277 17.9243 19.2619 16.4229C21.2961 14.9215 23.7497 14.0956 26.2778 14.0613V14.0613Z" fill="#EA4335"/>
</svg>